HIERARCHY
ROOT Hips
{
	OFFSET -0.001795 -0.223333 0.028219
	CHANNELS 6 Xposition Yposition Zposition Zrotation Yrotation Xrotation 
	JOINT LeftUpLeg
	{
		OFFSET 0.069520 -0.091406 -0.006815
		CHANNELS 3 Zrotation Yrotation Xrotation
		JOINT LeftLeg
		{
			OFFSET 0.034277 -0.375199 -0.004496
			CHANNELS 3 Zrotation Yrotation Xrotation
			JOINT LeftFoot
			{
				OFFSET -0.013596 -0.397961 -0.043693
				CHANNELS 3 Zrotation Yrotation Xrotation
				JOINT LeftToe
				{
					OFFSET 0.026358 -0.055791 0.119288
					CHANNELS 3 Zrotation Yrotation Xrotation
					End Site
					{
						OFFSET 0.000000 0.000000 0.000000
					}
				}
			}
		}
	}
	JOINT RightUpLeg
	{
		OFFSET -0.067670 -0.090522 -0.004320
		CHANNELS 3 Zrotation Yrotation Xrotation
		JOINT RightLeg
		{
			OFFSET -0.038290 -0.382569 -0.008850
			CHANNELS 3 Zrotation Yrotation Xrotation
			JOINT RightFoot
			{
				OFFSET 0.015774 -0.398415 -0.042312
				CHANNELS 3 Zrotation Yrotation Xrotation
				JOINT RightToe
				{
					OFFSET -0.025372 -0.048144 0.123348
					CHANNELS 3 Zrotation Yrotation Xrotation
					End Site
					{
						OFFSET 0.000000 0.000000 0.000000
					}
				}
			}
		}
	}
	JOINT Spine
	{
		OFFSET -0.002533 0.108963 -0.026696
		CHANNELS 3 Zrotation Yrotation Xrotation
		JOINT Spine1
		{
			OFFSET 0.005487 0.135180 0.001092
			CHANNELS 3 Zrotation Yrotation Xrotation
			JOINT Spine2
			{
				OFFSET 0.001457 0.052922 0.025425
				CHANNELS 3 Zrotation Yrotation Xrotation
				JOINT Neck
				{
					OFFSET -0.002778 0.213870 -0.042857
					CHANNELS 3 Zrotation Yrotation Xrotation
					JOINT Head
					{
						OFFSET 0.005152 0.064970 0.051349
						CHANNELS 3 Zrotation Yrotation Xrotation
						End Site
						{
							OFFSET 0.000000 0.000000 0.000000
						}
					}
				}
				JOINT LeftShoulder
				{
					OFFSET 0.078845 0.121749 -0.034090
					CHANNELS 3 Zrotation Yrotation Xrotation
					JOINT LeftArm
					{
						OFFSET 0.090977 0.030469 -0.008868
						CHANNELS 3 Zrotation Yrotation Xrotation
						JOINT LeftForeArm
						{
							OFFSET 0.259612 -0.012772 -0.027456
							CHANNELS 3 Zrotation Yrotation Xrotation
							JOINT LeftHand
							{
								OFFSET 0.249234 0.008986 -0.001171
								CHANNELS 3 Zrotation Yrotation Xrotation
								End Site
								{
									OFFSET 0.000000 0.000000 0.000000
								}
							}
						}
					}
				}
				JOINT RightShoulder
				{
					OFFSET -0.081759 0.118833 -0.038615
					CHANNELS 3 Zrotation Yrotation Xrotation
					JOINT RightArm
					{
						OFFSET -0.096012 0.032551 -0.009143
						CHANNELS 3 Zrotation Yrotation Xrotation
						JOINT RightForeArm
						{
							OFFSET -0.253742 -0.013329 -0.021401
							CHANNELS 3 Zrotation Yrotation Xrotation
							JOINT RightHand
							{
								OFFSET -0.255298 0.007772 -0.005559
								CHANNELS 3 Zrotation Yrotation Xrotation
								End Site
								{
									OFFSET 0.000000 0.000000 0.000000
								}
							}
						}
					}
				}
			}
		}
	}
}
MOTION
Frames: 13
Frame Time: 0.050000
0.000000 0.937357 0.000000 6.395548 10.497824 14.806762 3.084808 -2.186570 -23.977477 -0.854739 -0.758568 17.209766 1.023918 5.445261 6.313307 0.000000 0.000000 0.000000 -3.145945 1.396415 -28.654280 1.114717 -0.152410 23.235328 0.710848 4.508734 -5.456779 0.000000 0.000000 0.000000 9.176830 -4.101449 23.400132 2.355158 -1.283357 1.822832 0.394469 7.807332 9.197055 9.792976 -3.852446 -14.800848 0.000000 0.000000 0.000000 -7.706615 -20.878867 6.519740 -18.749447 -8.108006 -0.873326 32.556648 -38.052434 -11.651867 0.000000 0.000000 0.000000 18.227378 20.810549 14.081086 35.542004 32.408323 4.178457 -22.463850 25.400277 -2.979803 0.000000 0.000000 0.000000 
0.010703 0.936540 -0.000835 6.737993 11.180177 15.061168 3.617319 -2.416991 -26.477538 -2.133163 -0.675456 20.607013 1.403686 5.483712 4.650884 0.000000 0.000000 0.000000 -3.307748 1.322171 -30.125415 1.232972 -0.322415 26.146864 0.547977 5.606715 -8.330633 0.000000 0.000000 0.000000 9.909105 -4.159276 22.252447 2.191381 -1.335141 3.177917 0.813688 7.526249 7.681942 8.336128 -3.450553 -12.363315 0.000000 0.000000 0.000000 -13.137118 -16.956660 4.513320 -17.464838 -4.895259 -1.047513 23.593360 -32.631293 -6.705991 0.000000 0.000000 0.000000 22.183627 19.052579 14.137421 31.278201 30.397207 2.525348 -17.911502 26.462425 -2.308836 0.000000 0.000000 0.000000 
0.024799 0.931029 0.002133 6.737779 10.737098 14.036977 4.691171 -2.311808 -27.471377 -2.665160 -0.628270 22.785960 1.151872 3.477062 1.618043 0.000000 0.000000 0.000000 -3.395070 1.338088 -30.324780 -0.485815 0.277509 29.710716 0.351664 5.267995 -8.663989 0.000000 0.000000 0.000000 10.153581 -4.055856 21.697203 1.489407 -1.025423 3.674875 0.776850 7.211327 8.023590 6.967004 -2.398324 -13.335216 0.000000 0.000000 0.000000 -14.006254 -12.154534 2.221458 -21.989559 -3.295198 -1.543279 20.210292 -34.413581 -6.013256 0.000000 0.000000 0.000000 22.231414 17.101595 12.688161 32.073971 27.874056 2.019520 -15.225419 28.955343 -1.940779 0.000000 0.000000 0.000000 
0.041811 0.927469 0.008146 6.834392 10.379016 12.499359 5.011566 -2.287471 -28.205602 -2.701167 -0.878816 27.547595 1.383698 2.409734 -1.290716 0.000000 0.000000 0.000000 -3.451503 1.357131 -30.043278 -1.505834 0.696714 32.854868 1.616119 10.060075 -9.415590 0.000000 0.000000 0.000000 9.864384 -3.969858 22.103562 0.976949 -0.802230 4.208955 2.247686 7.842006 6.692351 5.627046 -1.213162 -15.068785 0.000000 0.000000 0.000000 -17.157384 -10.238593 0.764231 -24.014237 2.420336 -2.440631 16.216049 -35.637408 -4.855704 0.000000 0.000000 0.000000 22.928448 15.747105 11.854924 32.146447 25.111694 1.472079 -13.401901 28.394049 -1.544478 0.000000 0.000000 0.000000 
0.063588 0.920405 0.017195 7.327119 11.067341 10.919769 4.957787 -2.397828 -28.860487 -2.409738 -1.287318 30.900717 1.344562 2.248245 -1.398757 0.000000 0.000000 0.000000 -4.178678 1.109245 -29.089081 -3.034417 1.250871 35.696922 1.606375 10.900645 -10.647845 0.000000 0.000000 0.000000 9.646515 -3.817170 21.746698 1.460225 -1.074359 4.358072 2.016716 7.964285 5.296885 3.969240 -0.358301 -13.831228 0.000000 0.000000 0.000000 -19.285120 -6.901840 -1.492795 -25.189179 6.470731 -3.153783 9.906505 -36.961652 -2.905574 0.000000 0.000000 0.000000 26.741748 12.915914 11.011154 29.964983 22.351546 0.370938 -11.921778 27.298322 -1.182919 0.000000 0.000000 0.000000 
0.090344 0.916369 0.028433 7.225207 11.378864 9.854894 5.401845 -2.225137 -27.930201 -3.335675 -1.074624 32.280254 2.334974 4.401129 -1.479002 0.000000 0.000000 0.000000 -5.032418 0.879087 -28.273557 -3.221291 1.285150 37.901004 1.534211 10.865992 -10.921664 0.000000 0.000000 0.000000 9.914546 -3.660131 20.662047 1.194874 -1.047309 5.534854 2.376110 9.288749 4.335860 3.903061 -0.258005 -13.509665 0.000000 0.000000 0.000000 -20.617547 -5.685733 -2.782124 -27.433396 10.003644 -4.083276 6.341711 -36.436727 -1.746315 0.000000 0.000000 0.000000 26.571587 10.421203 9.639993 29.910564 20.341390 -0.086009 -11.029083 25.658521 -0.902710 0.000000 0.000000 0.000000 
0.122486 0.915060 0.040221 7.193968 10.928904 9.069910 5.912931 -1.985206 -26.733420 -4.096937 -0.760453 32.604310 2.057803 3.008681 -2.921438 0.000000 0.000000 0.000000 -5.785290 0.730543 -27.145431 -5.068274 2.226532 38.698487 2.045802 12.348711 -10.510437 0.000000 0.000000 0.000000 10.403092 -3.476330 19.330085 -0.002956 -0.269304 3.557056 3.701564 10.839029 5.338257 1.872721 1.063367 -13.124387 0.000000 0.000000 0.000000 -21.792548 -2.514461 -5.120022 -27.545912 11.825168 -4.449076 1.706724 -35.038351 -0.269840 0.000000 0.000000 0.000000 26.348283 7.230160 7.943027 29.534679 17.973313 -0.829065 -9.619241 24.697483 -0.540347 0.000000 0.000000 0.000000 
0.159017 0.915924 0.052210 7.821286 12.118573 8.081442 7.347089 -1.673450 -25.260326 -4.607002 -0.664103 32.145739 -0.709622 -2.317139 -1.172488 0.000000 0.000000 0.000000 -7.773132 0.218349 -24.910919 -5.779941 2.384710 39.186240 1.682132 11.319627 -11.051753 0.000000 0.000000 0.000000 10.596427 -3.257489 17.868769 1.541043 -1.149925 4.508097 2.162948 11.992366 4.537181 1.680783 1.625409 -14.999452 0.000000 0.000000 0.000000 -21.343656 -0.504113 -6.601523 -29.280147 12.245670 -4.826067 -1.280708 -31.563693 0.484134 0.000000 0.000000 0.000000 23.650258 4.232550 6.077744 30.793762 17.171972 -0.943892 -7.906161 23.264433 -0.100042 0.000000 0.000000 0.000000 
0.200021 0.916067 0.064360 8.540353 12.020265 7.593450 8.888651 -1.397733 -24.946196 -4.048878 -0.800493 31.412261 -0.016627 0.167058 0.279917 0.000000 0.000000 0.000000 -10.027527 -0.200847 -22.761150 -6.577145 2.773733 38.847759 2.173536 12.783127 -10.782383 0.000000 0.000000 0.000000 9.860797 -2.841645 16.572509 1.231286 -0.963673 4.219450 2.868569 13.718025 3.279608 0.803914 1.632090 -11.053322 0.000000 0.000000 0.000000 -21.715409 0.574074 -7.698602 -29.209893 12.970261 -4.871403 -3.228220 -26.467438 0.871394 0.000000 0.000000 0.000000 21.341240 4.074384 5.930258 31.002082 14.272436 -1.464980 -7.442577 22.746684 0.012012 0.000000 0.000000 0.000000 
0.245746 0.912164 0.076416 9.402156 11.659231 7.442608 10.840520 -1.037574 -24.145996 -3.252592 -0.780167 27.704241 -0.147588 0.920281 2.050507 0.000000 0.000000 0.000000 -13.782958 -0.866682 -21.231155 -6.497658 2.815363 38.966081 1.883109 11.814654 -10.706315 0.000000 0.000000 0.000000 9.771194 -2.643064 15.633252 0.613317 -0.484501 2.276170 3.433944 15.155018 5.146602 0.612601 1.944982 -11.271018 0.000000 0.000000 0.000000 -21.673153 0.615879 -8.096402 -31.003210 13.214629 -5.324300 -3.406976 -22.142644 0.748643 0.000000 0.000000 0.000000 20.681396 3.905701 6.112723 29.665511 12.265086 -2.049535 -7.657147 22.356050 -0.027105 0.000000 0.000000 0.000000 
0.295369 0.904721 0.088047 9.876476 11.641954 7.409210 13.458394 -0.662110 -23.655181 -2.263361 -0.762718 22.915686 -1.419451 0.538745 5.940904 0.000000 0.000000 0.000000 -16.980666 -1.445003 -20.225510 -5.556469 2.397092 40.244177 1.824263 12.365321 -11.499337 0.000000 0.000000 0.000000 10.066892 -2.510671 14.528585 0.913856 -0.588829 1.738770 2.923928 16.064109 5.441593 1.266441 1.424956 -10.196490 0.000000 0.000000 0.000000 -20.767702 1.650791 -8.561144 -33.330455 13.753140 -6.045976 -3.573536 -18.306954 0.627207 0.000000 0.000000 0.000000 19.291880 4.208973 6.281100 28.751045 11.039841 -2.268661 -6.009248 21.993880 0.213023 0.000000 0.000000 0.000000 
0.348306 0.891811 0.099277 10.103540 11.786662 6.874838 15.565472 -0.374074 -23.555073 0.313784 -1.266707 19.992453 -4.050374 -2.258643 9.704529 0.000000 0.000000 0.000000 -21.284937 -2.032696 -17.509687 -4.352212 1.827358 40.351736 2.011198 13.294176 -11.741291 0.000000 0.000000 0.000000 10.355533 -2.402944 13.689721 1.239101 -0.781289 2.155919 2.606037 16.345043 6.147630 1.790497 1.174351 -10.344058 0.000000 0.000000 0.000000 -21.739889 1.185857 -8.849982 -34.185088 15.256210 -6.586236 -2.947836 -16.733815 0.493631 0.000000 0.000000 0.000000 17.487315 5.809206 6.823664 29.249361 9.299293 -2.447881 -6.163739 22.950649 0.170844 0.000000 0.000000 0.000000 
0.404830 0.879097 0.109617 9.548821 9.453605 6.503786 17.171127 0.044426 -23.234160 1.322230 -1.457509 20.194383 -4.143116 -2.066991 10.764114 0.000000 0.000000 0.000000 -24.012202 -2.084415 -16.308599 -3.974416 2.028413 38.974042 2.162487 13.305344 -10.705871 0.000000 0.000000 0.000000 10.726860 -2.506935 14.328618 -0.646471 0.240058 0.813478 4.403938 17.289272 7.149824 2.187774 0.917348 -10.399535 0.000000 0.000000 0.000000 -22.183792 0.296405 -8.501126 -36.152946 16.443323 -7.397363 -1.902912 -14.111094 0.318821 0.000000 0.000000 0.000000 18.487201 4.948565 6.418879 27.185432 9.515110 -2.404673 -6.639836 22.651227 0.055623 0.000000 0.000000 0.000000 
